<svg xmlns="http://www.w3.org/2000/svg" version="1.1" xmlns:xlink="http://www.w3.org/1999/xlink" xmlns:svgjs="http://svgjs.com/svgjs" width="512" height="512" x="0" y="0" viewBox="0 0 512 512" style="enable-background:new 0 0 512 512" xml:space="preserve"><g><path d="M38.01 218.435v248.12C38.01 486.131 53.88 502 73.456 502h365.091c19.576 0 35.446-15.869 35.446-35.446v-248.12L256.001 57.157 38.01 218.435z" style="" fill="#FFFFFF" data-original="#ffffff"></path><path d="M320.223 372.205H191.78L38.01 218.435v248.12C38.01 486.131 53.88 502 73.456 502h365.091c19.576 0 35.446-15.869 35.446-35.446v-248.12l-153.77 153.771z" style="" fill="#EAF9FF" data-original="#eaf9ff"></path><path d="M301.171 353.152c-24.946-24.946-65.392-24.946-90.338 0L63.431 500.553A35.444 35.444 0 0 0 73.456 502h365.091c3.483 0 6.845-.511 10.025-1.447L301.171 353.152z" style="" fill="#C4EFFF" data-original="#c4efff"></path><path d="M117.007 29.398v178.238c0 10.714 8.685 19.398 19.398 19.398h18.801l38.797 38.955v-38.955h192.593c10.714 0 19.398-8.685 19.398-19.398V29.398c0-10.714-8.685-19.398-19.398-19.398H136.405c-10.713 0-19.398 8.684-19.398 19.398z" style="" fill="#E5F8D2" data-original="#e5f8d2"></path><path d="m479.939 210.396-30.177-22.326c-4.44-3.285-10.702-2.349-13.986 2.092-3.285 4.439-2.349 10.701 2.091 13.985l20.847 15.423-48.981 48.98c-3.905 3.905-3.905 10.237 0 14.142 1.953 1.952 4.512 2.929 7.071 2.929s5.119-.977 7.071-2.929l40.117-40.117v223.979c0 9.538-5.278 17.862-13.063 22.219-.015-.015-.027-.032-.042-.047L334.364 372.205l30.691-30.69c3.905-3.905 3.906-10.237 0-14.142-3.906-3.903-10.237-3.904-14.141 0l-30.692 30.691-11.982-11.982c-28.806-28.806-75.675-28.806-104.48 0l-11.981 11.982L53.288 219.571 83.39 197.3c4.44-3.285 5.376-9.547 2.091-13.985-3.285-4.44-9.548-5.378-13.986-2.092l-39.432 29.174a9.999 9.999 0 0 0-4.052 8.039v248.12C28.01 491.614 48.397 512 73.455 512h365.09c25.059 0 45.445-20.387 45.445-45.445v-248.12a9.992 9.992 0 0 0-4.051-8.039zM217.903 360.223c21.008-21.007 55.19-21.007 76.197 0l131.778 131.778H86.125l27.866-27.866h130.12c5.523 0 10-4.478 10-10s-4.477-10-10-10H133.99l22.547-22.547h64.115c5.523 0 10-4.478 10-10s-4.477-10-10-10h-44.116l22.311-22.311.004-.003.003-.004 19.049-19.047zM48.01 466.555V242.576l129.629 129.629L61.116 488.727c-.015.015-.027.032-.042.047-7.786-4.356-13.064-12.682-13.064-22.219z" fill="#000000" data-original="#000000"></path><path d="M280.77 464.13c2.63 0 5.21-1.06 7.07-2.93 1.87-1.86 2.93-4.43 2.93-7.07 0-2.63-1.06-5.21-2.93-7.069a10.059 10.059 0 0 0-7.07-2.931c-2.63 0-5.21 1.07-7.07 2.931a10.072 10.072 0 0 0-2.93 7.069c0 2.641 1.07 5.21 2.93 7.07a10.03 10.03 0 0 0 7.07 2.93zM381.873 296.412l-.681.681c-3.905 3.905-3.905 10.237 0 14.142a9.972 9.972 0 0 0 7.071 2.929 9.97 9.97 0 0 0 7.071-2.929l.681-.681c3.905-3.905 3.905-10.237 0-14.142-3.905-3.904-10.237-3.904-14.142 0zM136.405 237.034h14.647l35.866 36.012a9.999 9.999 0 0 0 17.086-7.057v-28.955h182.594c16.21 0 29.398-13.187 29.398-29.399V29.398C415.995 13.187 402.806 0 386.596 0H136.405c-16.21 0-29.398 13.187-29.398 29.398v178.237c.001 16.211 13.188 29.399 29.398 29.399zm-9.398-207.636c0-5.183 4.217-9.399 9.399-9.399h250.191c5.183 0 9.399 4.217 9.399 9.399v178.237c0 5.184-4.217 9.4-9.399 9.4H194.004c-5.523 0-10 4.478-10 10v14.744l-21.712-21.801a9.999 9.999 0 0 0-7.085-2.943h-18.802c-5.183 0-9.399-4.217-9.399-9.4V29.398z" fill="#000000" data-original="#000000"></path><path d="M255.975 190.544h48.524c5.523 0 10-4.478 10-10s-4.477-10-10-10h-48.524c-30.875 0-55.993-25.118-55.993-55.993v-1.011c0-30.874 25.118-55.992 55.993-55.992 30.874 0 55.993 25.118 55.993 55.992v16.02c0 4.954-4.03 8.984-8.984 8.984S294 134.514 294 129.56v-18.096c0-22.606-18.392-40.998-40.998-40.998-23.709 0-42.998 19.289-42.998 42.998s19.289 42.998 42.998 42.998h12.437c5.523 0 10-4.478 10-10s-4.477-10-10-10h-12.436c-12.681 0-22.999-10.317-22.999-22.999s10.318-22.999 22.999-22.999c11.58 0 20.999 9.421 20.999 20.999v18.096c0 15.981 13.001 28.983 28.983 28.983 15.981 0 28.983-13.001 28.983-28.983v-16.02c0-41.901-34.09-75.991-75.992-75.991s-75.992 34.09-75.992 75.991v1.011c0 41.905 34.089 75.994 75.991 75.994z" fill="#000000" data-original="#000000"></path></g></svg>