<svg xmlns="http://www.w3.org/2000/svg" version="1.1" xmlns:xlink="http://www.w3.org/1999/xlink" xmlns:svgjs="http://svgjs.com/svgjs" width="512" height="512" x="0" y="0" viewBox="0 0 24 24" style="enable-background:new 0 0 512 512" xml:space="preserve"><g><path fill="#000000" fill-rule="evenodd" d="M15.037 4.296a.75.75 0 0 1 .75.75V8.13a.75.75 0 0 1-1.5 0V7.3H2.112a.75.75 0 1 1 0-1.5h12.175v-.754a.75.75 0 0 1 .75-.75zm7.713 2.246a.75.75 0 0 1-.743.757l-4.034.04a.75.75 0 0 1-.015-1.5l4.035-.04a.75.75 0 0 1 .757.743zM9.042 9.248a.75.75 0 0 1 .75.75v3.084a.75.75 0 0 1-1.5 0v-.831h-6.18a.75.75 0 0 1 0-1.5h6.18v-.753a.75.75 0 0 1 .75-.75zM11.25 11.5a.75.75 0 0 1 .75-.75h10a.75.75 0 0 1 0 1.5H12a.75.75 0 0 1-.75-.75zm1.766 3.71a.75.75 0 0 1 .75.75v3.085a.75.75 0 0 1-1.5 0v-.831H2.473a.75.75 0 0 1 0-1.5h9.793v-.753a.75.75 0 0 1 .75-.75zM23.11 17.46a.75.75 0 0 1-.746.755l-6.375.039a.75.75 0 0 1-.009-1.5l6.375-.04a.75.75 0 0 1 .755.746z" clip-rule="evenodd" data-original="#000000"></path></g></svg>