<svg xmlns="http://www.w3.org/2000/svg" version="1.1" xmlns:xlink="http://www.w3.org/1999/xlink" xmlns:svgjs="http://svgjs.com/svgjs" width="512" height="512" x="0" y="0" viewBox="0 0 512 512" style="enable-background:new 0 0 512 512" xml:space="preserve"><g><path d="M337.015 460.478h91.941a8 8 0 0 0 8-8V268.6a8 8 0 0 0-8-8h-91.941a8 8 0 0 0-8 8v183.878a8 8 0 0 0 8 8zm53.971-91.939h29.97v29.97h-29.97zm-16 29.97h-29.972v-29.97h29.972zm45.97-45.97h-29.97v-29.97h29.97zm-45.97 0h-29.972v-29.97h29.972zm-29.971 61.97h29.972v29.969h-29.972zm45.971 29.969v-29.969h29.97v29.969zm29.97-137.909h-29.97V276.6h29.97zm-45.97-29.969v29.97h-29.972V276.6zm-204.11-16H78.935a8 8 0 0 0-8 8v183.878a8 8 0 0 0 8 8h91.941a8 8 0 0 0 8-8V268.6a8 8 0 0 0-8-8zm-53.971 91.939h-29.97v-29.97h29.971v29.97zm16-29.97h29.971v29.97h-29.971zm-45.97 45.97h29.971v29.97H86.935zm45.97 0h29.971v29.97h-29.971zm29.971-61.97h-29.971V276.6h29.971zM116.905 276.6v29.97h-29.97V276.6zm-29.97 137.909h29.971v29.969H86.935zm45.97 29.969v-29.969h29.971v29.969zm69.04-304.234h-45.97a8 8 0 0 0-8 8v45.97a8 8 0 0 0 8 8h45.97a8 8 0 0 0 8-8v-45.97a8 8 0 0 0-8-8zm-8 45.97h-29.97v-29.97h29.97zm85.04-45.97h-45.97a8 8 0 0 0-8 8v45.97a8 8 0 0 0 8 8h45.97a8 8 0 0 0 8-8v-45.97a8 8 0 0 0-8-8zm-8 45.97h-29.97v-29.97h29.97zm85.039-45.97h-45.969a8 8 0 0 0-8 8v45.97a8 8 0 0 0 8 8h45.969a8 8 0 0 0 8-8v-45.97a8 8 0 0 0-8-8zm-8 45.97h-29.969v-29.97h29.969zM492.098 488h-14.475V225.077a8 8 0 0 0-8-8h-74.527v-99.696a8 8 0 0 0-8-8H264V79.308h67.067a8 8 0 0 0 6.893-12.06l-13.894-23.594 13.894-23.595A7.999 7.999 0 0 0 331.067 8H256a8 8 0 0 0-8 8v93.381H124.905a8 8 0 0 0-8 8v99.696H42.378a8 8 0 0 0-8 8v262.92H19.902a8 8 0 0 0 0 16H42.32c.02 0 .039.003.058.003h449.72a8 8 0 0 0 0-16zM307.89 47.714l9.183 15.594H264V24h53.072l-9.183 15.594a8.001 8.001 0 0 0 .001 8.12zm-174.985 77.667H255.98l.02.001.02-.001h123.076v91.696h-246.19v-91.696zM50.378 233.077h74.508l.02.001.02-.001h85.616v78.703a8 8 0 0 0 16 0v-78.703H248v96.546a8 8 0 0 0 16 0v-96.546h21.458v78.703a8 8 0 0 0 16 0v-78.703h85.618l.02.001.02-.001h74.508V488H312.565V379.023a8 8 0 0 0-8-8h-97.132a8 8 0 0 0-8 8V488H50.378zM264 387.023h32.565V488H264zM248 488h-32.566V387.023H248z" fill="#000000" data-original="#000000"></path></g></svg>