<svg xmlns="http://www.w3.org/2000/svg" version="1.1" xmlns:xlink="http://www.w3.org/1999/xlink" xmlns:svgjs="http://svgjs.com/svgjs" width="512" height="512" x="0" y="0" viewBox="0 0 512 512" style="enable-background:new 0 0 512 512" xml:space="preserve" class=""><g><path fill="#3D3F99" d="M256 228.8c-26.41 0-47.9 21.48-47.9 47.89 0 16.71 8.49 31.86 22.45 40.58v82.96c0 14.04 11.42 25.46 25.45 25.46s25.45-11.42 25.45-25.46v-82.96c13.96-8.72 22.45-23.87 22.45-40.58 0-26.41-21.49-47.89-47.9-47.89zm14.61 77.37a7.5 7.5 0 0 0-4.16 6.71v87.35c0 5.77-4.69 10.46-10.45 10.46s-10.45-4.69-10.45-10.46v-87.35a7.5 7.5 0 0 0-4.16-6.71c-11.28-5.61-18.29-16.9-18.29-29.48 0-18.14 14.76-32.89 32.9-32.89s32.9 14.75 32.9 32.89c0 12.58-7.01 23.87-18.29 29.48zM256 228.8c-26.41 0-47.9 21.48-47.9 47.89 0 16.71 8.49 31.86 22.45 40.58v82.96c0 14.04 11.42 25.46 25.45 25.46s25.45-11.42 25.45-25.46v-82.96c13.96-8.72 22.45-23.87 22.45-40.58 0-26.41-21.49-47.89-47.9-47.89zm14.61 77.37a7.5 7.5 0 0 0-4.16 6.71v87.35c0 5.77-4.69 10.46-10.45 10.46s-10.45-4.69-10.45-10.46v-87.35a7.5 7.5 0 0 0-4.16-6.71c-11.28-5.61-18.29-16.9-18.29-29.48 0-18.14 14.76-32.89 32.9-32.89s32.9 14.75 32.9 32.89c0 12.58-7.01 23.87-18.29 29.48zM256 228.8c-26.41 0-47.9 21.48-47.9 47.89 0 16.71 8.49 31.86 22.45 40.58v82.96c0 14.04 11.42 25.46 25.45 25.46s25.45-11.42 25.45-25.46v-82.96c13.96-8.72 22.45-23.87 22.45-40.58 0-26.41-21.49-47.89-47.9-47.89zm14.61 77.37a7.5 7.5 0 0 0-4.16 6.71v87.35c0 5.77-4.69 10.46-10.45 10.46s-10.45-4.69-10.45-10.46v-87.35a7.5 7.5 0 0 0-4.16-6.71c-11.28-5.61-18.29-16.9-18.29-29.48 0-18.14 14.76-32.89 32.9-32.89s32.9 14.75 32.9 32.89c0 12.58-7.01 23.87-18.29 29.48zM256 228.8c-26.41 0-47.9 21.48-47.9 47.89 0 16.71 8.49 31.86 22.45 40.58v82.96c0 14.04 11.42 25.46 25.45 25.46s25.45-11.42 25.45-25.46v-82.96c13.96-8.72 22.45-23.87 22.45-40.58 0-26.41-21.49-47.89-47.9-47.89zm14.61 77.37a7.5 7.5 0 0 0-4.16 6.71v87.35c0 5.77-4.69 10.46-10.45 10.46s-10.45-4.69-10.45-10.46v-87.35a7.5 7.5 0 0 0-4.16-6.71c-11.28-5.61-18.29-16.9-18.29-29.48 0-18.14 14.76-32.89 32.9-32.89s32.9 14.75 32.9 32.89c0 12.58-7.01 23.87-18.29 29.48zm126.56-140.19h-22.12v-53.77c0-48.92-39.79-88.71-88.71-88.71h-60.68c-48.92 0-88.71 39.79-88.71 88.71v53.77h-22.12c-29.04 0-52.67 23.63-52.67 52.68v217.17c0 29.04 23.63 52.67 52.67 52.67h282.34c29.04 0 52.67-23.63 52.67-52.67V218.66c0-29.05-23.63-52.68-52.67-52.68zm-245.22-53.77c0-40.65 33.07-73.71 73.71-73.71h60.68c40.65 0 73.71 33.06 73.71 73.71v53.77h-25.6v-53.77c0-26.53-21.58-48.11-48.11-48.11h-60.68c-26.53 0-48.11 21.58-48.11 48.11v53.77h-25.6zm167.5 0v53.77h-126.9v-53.77c0-18.26 14.85-33.11 33.11-33.11h60.68c18.26 0 33.11 14.85 33.11 33.11zm115.39 323.62c0 20.77-16.9 37.67-37.67 37.67H114.83c-20.77 0-37.67-16.9-37.67-37.67V218.66c0-20.77 16.9-37.68 37.67-37.68h282.34c20.77 0 37.67 16.91 37.67 37.68zM256 228.8c-26.41 0-47.9 21.48-47.9 47.89 0 16.71 8.49 31.86 22.45 40.58v82.96c0 14.04 11.42 25.46 25.45 25.46s25.45-11.42 25.45-25.46v-82.96c13.96-8.72 22.45-23.87 22.45-40.58 0-26.41-21.49-47.89-47.9-47.89zm14.61 77.37a7.5 7.5 0 0 0-4.16 6.71v87.35c0 5.77-4.69 10.46-10.45 10.46s-10.45-4.69-10.45-10.46v-87.35a7.5 7.5 0 0 0-4.16-6.71c-11.28-5.61-18.29-16.9-18.29-29.48 0-18.14 14.76-32.89 32.9-32.89s32.9 14.75 32.9 32.89c0 12.58-7.01 23.87-18.29 29.48zM256 228.8c-26.41 0-47.9 21.48-47.9 47.89 0 16.71 8.49 31.86 22.45 40.58v82.96c0 14.04 11.42 25.46 25.45 25.46s25.45-11.42 25.45-25.46v-82.96c13.96-8.72 22.45-23.87 22.45-40.58 0-26.41-21.49-47.89-47.9-47.89zm14.61 77.37a7.5 7.5 0 0 0-4.16 6.71v87.35c0 5.77-4.69 10.46-10.45 10.46s-10.45-4.69-10.45-10.46v-87.35a7.5 7.5 0 0 0-4.16-6.71c-11.28-5.61-18.29-16.9-18.29-29.48 0-18.14 14.76-32.89 32.9-32.89s32.9 14.75 32.9 32.89c0 12.58-7.01 23.87-18.29 29.48zM256 228.8c-26.41 0-47.9 21.48-47.9 47.89 0 16.71 8.49 31.86 22.45 40.58v82.96c0 14.04 11.42 25.46 25.45 25.46s25.45-11.42 25.45-25.46v-82.96c13.96-8.72 22.45-23.87 22.45-40.58 0-26.41-21.49-47.89-47.9-47.89zm14.61 77.37a7.5 7.5 0 0 0-4.16 6.71v87.35c0 5.77-4.69 10.46-10.45 10.46s-10.45-4.69-10.45-10.46v-87.35a7.5 7.5 0 0 0-4.16-6.71c-11.28-5.61-18.29-16.9-18.29-29.48 0-18.14 14.76-32.89 32.9-32.89s32.9 14.75 32.9 32.89c0 12.58-7.01 23.87-18.29 29.48z" data-original="#3d3f99" class=""></path><path fill="#DDF2F7" d="M397.17 180.98H114.83c-20.77 0-37.67 16.91-37.67 37.68v217.17c0 20.77 16.9 37.67 37.67 37.67h282.34c20.77 0 37.67-16.9 37.67-37.67V218.66c0-20.77-16.9-37.68-37.67-37.68zM281.45 317.27v82.96c0 14.04-11.42 25.46-25.45 25.46s-25.45-11.42-25.45-25.46v-82.96c-13.96-8.72-22.45-23.87-22.45-40.58 0-26.41 21.49-47.89 47.9-47.89s47.9 21.48 47.9 47.89c0 16.71-8.49 31.86-22.45 40.58z" data-original="#ddf2f7"></path><g fill="#73B2E1"><path d="M360.05 112.21v53.77h-25.6v-53.77c0-26.53-21.58-48.11-48.11-48.11h-60.68c-26.53 0-48.11 21.58-48.11 48.11v53.77h-25.6v-53.77c0-40.65 33.07-73.71 73.71-73.71h60.68c40.65 0 73.71 33.06 73.71 73.71zM288.9 276.69c0 12.58-7.01 23.87-18.29 29.48a7.5 7.5 0 0 0-4.16 6.71v87.35c0 5.77-4.69 10.46-10.45 10.46s-10.45-4.69-10.45-10.46v-87.35a7.5 7.5 0 0 0-4.16-6.71c-11.28-5.61-18.29-16.9-18.29-29.48 0-18.14 14.76-32.89 32.9-32.89s32.9 14.75 32.9 32.89z" fill="#73B2E1" data-original="#73b2e1" class=""></path></g></g></svg>