<svg xmlns="http://www.w3.org/2000/svg" version="1.1" xmlns:xlink="http://www.w3.org/1999/xlink" xmlns:svgjs="http://svgjs.com/svgjs" width="512" height="512" x="0" y="0" viewBox="0 0 512 512" style="enable-background:new 0 0 512 512" xml:space="preserve" class=""><g><path d="M256 512c30.692 0 57.122-18.539 68.719-45H187.281c11.597 26.461 38.028 45 68.719 45zM411 247.862V215c0-69.822-46.411-129.001-110-148.33V45c0-24.813-20.187-45-45-45s-45 20.187-45 45v21.67C147.41 85.999 101 145.177 101 215v32.862c0 61.332-23.378 119.488-65.827 163.756A14.999 14.999 0 0 0 46 437h420a15 15 0 0 0 10.827-25.382C434.378 367.35 411 309.193 411 247.862zM271 60.728c-4.937-.476-9.94-.728-15-.728s-10.063.252-15 .728V45c0-8.271 6.729-15 15-15s15 6.729 15 15zM451 215c0 8.284 6.716 15 15 15s15-6.716 15-15c0-60.1-23.404-116.603-65.901-159.1-5.857-5.857-15.355-5.858-21.213 0s-5.858 15.355 0 21.213C430.717 113.944 451 162.913 451 215zM46 230c8.284 0 15-6.716 15-15 0-52.086 20.284-101.055 57.114-137.886 5.858-5.858 5.858-15.355 0-21.213-5.857-5.858-15.355-5.858-21.213 0C54.404 98.398 31 154.9 31 215c0 8.284 6.716 15 15 15z" fill="#000000" data-original="#000000"></path></g></svg>