<svg xmlns="http://www.w3.org/2000/svg" version="1.1" xmlns:xlink="http://www.w3.org/1999/xlink" xmlns:svgjs="http://svgjs.com/svgjs" width="512" height="512" x="0" y="0" viewBox="0 0 4335 4335" style="enable-background:new 0 0 512 512" xml:space="preserve"><g><path d="M3243 4334c-1015 0-2636-1516-3105-2647-190-459-182-826 21-1067l1053 1056c-51 98-16 234 28 339 210 508 930 1133 1306 1133 44 0 81-8 112-24l1055 1054c-125 103-282 156-470 156zM239 537l304-304c78-78 182-121 293-121s214 43 292 121l467 466c77 77 120 181 120 291s-43 213-120 290l-308 308zm2507 2512 309-309c77-77 180-120 290-120s213 43 291 120l466 467c161 161 161 423 0 584l-306 307zM4276 1972c-31 0-57-26-57-57 0-992-807-1799-1799-1799-32 0-57-26-57-58 0-31 25-57 57-57 1056 0 1914 858 1914 1914 0 31-26 57-58 57z" fill="#000000" data-original="#000000"></path><path d="M3727 1972c-32 0-58-26-58-57 0-689-560-1249-1249-1249-32 0-57-26-57-58s25-58 57-58c752 0 1364 612 1364 1365 1 31-25 57-57 57z" fill="#000000" data-original="#000000"></path><path d="M3177 1972c-32 0-57-26-57-57 0-386-314-700-700-700-32 0-57-26-57-57 0-32 25-58 57-58 449 0 815 365 815 815 0 31-26 57-58 57z" fill="#000000" data-original="#000000"></path></g></svg>