<svg xmlns="http://www.w3.org/2000/svg" version="1.1" xmlns:xlink="http://www.w3.org/1999/xlink" xmlns:svgjs="http://svgjs.com/svgjs" width="512" height="512" x="0" y="0" viewBox="0 0 66 66" style="enable-background:new 0 0 512 512" xml:space="preserve"><g><path d="M9.1 59c-.3 0-.6-.2-.8-.4l-2.9-4.3c-.3-.5-.2-1.1.3-1.4s1.1-.2 1.4.3l2.3 3.5 2.3-1.5L9 53c-.4-.3-.5-1-.2-1.4s1-.5 1.4-.2l3.8 3c.3.2.4.5.4.8s-.2.6-.5.8l-4.3 2.8c-.1.1-.3.2-.5.2z" fill="#000000" data-original="#000000"></path><path d="M18 59c-.2 0-.4 0-.5-.1L13 56.1c-.3-.2-.5-.5-.5-.8s.1-.6.4-.8l4-3c.4-.3 1.1-.2 1.4.2s.2 1.1-.2 1.4l-2.8 2.1 2.5 1.5 2.3-3.5c.3-.5.9-.6 1.4-.3s.6.9.3 1.4l-2.9 4.3c-.3.2-.6.4-.9.4zM13.4 50.6c-4 0-7.2-3.2-7.2-7.2v-2.3c0-.6.4-1 1-1s1 .4 1 1v2.3c0 2.9 2.3 5.2 5.2 5.2s5.2-2.3 5.2-5.2v-2.7c0-.6.4-1 1-1s1 .4 1 1v2.7c0 4-3.3 7.2-7.2 7.2z" fill="#000000" data-original="#000000"></path><path d="M21 65H6c-2.6 0-4.8-2.1-4.8-4.8v-2.5c0-2.4 1.5-4.4 3.8-5.1l3.6-1.1v-3.1c0-.6.4-1 1-1s1 .4 1 1v3.9c0 .4-.3.8-.7 1l-4.3 1.3c-1.4.4-2.4 1.7-2.4 3.2v2.5C3.2 61.8 4.5 63 6 63h15c1.5 0 2.8-1.2 2.8-2.8v-2.5c0-1.5-1-2.8-2.4-3.2l-4.3-1.3c-.4-.1-.7-.5-.7-1v-3.8c0-.6.4-1 1-1s1 .4 1 1v3.1l3.6 1.1c2.3.7 3.8 2.7 3.8 5.1v2.5c0 2.7-2.1 4.8-4.8 4.8z" fill="#000000" data-original="#000000"></path><path d="M13.4 65c-.6 0-1-.4-1-1v-8.6c0-.6.4-1 1-1s1 .4 1 1V64c0 .6-.4 1-1 1zM18.5 42.1H8.3c-1.7 0-3-1.4-3-3v-5c0-.6.4-1 1-1s1 .4 1 1v5c0 .6.5 1 1 1h10.2c.6 0 1-.5 1-1v-5c0-.6.4-1 1-1s1 .4 1 1v5c.1 1.6-1.3 3-3 3z" fill="#000000" data-original="#000000"></path><path d="M13.4 37.4h-.3L2.9 34c-.4-.1-.7-.5-.7-1s.3-.8.7-1l10.2-3.3c.2-.1.4-.1.6 0L23.9 32c.4.1.7.5.7 1s-.3.8-.7 1l-10.2 3.3c-.1 0-.2.1-.3.1zm-6.9-4.3 6.9 2.2 6.9-2.2-6.9-2.2z" fill="#000000" data-original="#000000"></path><path d="M3.3 38.3c-.6 0-1-.4-1-1v-4c0-.6.4-1 1-1s1 .4 1 1v4c0 .5-.5 1-1 1zM55.3 56.5c-.2 0-.5-.1-.7-.2-.2-.2-.3-.5-.3-.8V14.7c0-1.6-1.3-3-3-3h-31c-.3 0-.7.1-1 .2s-.6.1-.9-.1c-.2-.2-.4-.5-.4-.8v-.2c-.3-2.7 1.6-5.2 4.2-5.5L53 1c1.3-.2 2.6.2 3.7 1s1.7 2 1.9 3.3l6.2 44.9c.4 2.7-1.5 5.2-4.2 5.6l-5.1.7h-.2zm-35-46.8h31c2.7 0 5 2.2 5 5v39.6l3.9-.5c1.6-.2 2.7-1.7 2.5-3.3L56.6 5.6c-.1-.8-.5-1.5-1.2-2-.6-.5-1.4-.7-2.2-.6L22.5 7.2c-1.3.2-2.3 1.2-2.5 2.5.1.1.2 0 .3 0z" fill="#000000" data-original="#000000"></path><path d="M51.3 65h-31c-.6 0-1-.4-1-1s.4-1 1-1h31c1.6 0 3-1.3 3-3V14.7c0-1.6-1.3-3-3-3h-31c-1.6 0-3 1.3-3 3v15.5c0 .6-.4 1-1 1s-1-.4-1-1V14.7c0-2.7 2.2-5 5-5h31c2.7 0 5 2.2 5 5V60c0 2.8-2.2 5-5 5z" fill="#000000" data-original="#000000"></path><path d="M34.5 18.3H23.2c-.6 0-1-.4-1-1s.4-1 1-1h11.3c.6 0 1 .4 1 1s-.4 1-1 1zM49 23.4H23.2c-.6 0-1-.4-1-1s.4-1 1-1H49c.6 0 1 .4 1 1s-.5 1-1 1zM49 28.5H23.2c-.6 0-1-.4-1-1s.4-1 1-1H49c.6 0 1 .4 1 1s-.5 1-1 1zM49 33.6H28.2c-.6 0-1-.4-1-1s.4-1 1-1H49c.6 0 1 .4 1 1s-.5 1-1 1zM33 38.7h-6.8c-.6 0-1-.4-1-1s.4-1 1-1H33c.6 0 1 .4 1 1s-.4 1-1 1zM31.9 43.8h-5.8c-.6 0-1-.4-1-1s.4-1 1-1h5.8c.6 0 1 .4 1 1s-.4 1-1 1zM32.5 48.9h-6.3c-.6 0-1-.4-1-1s.4-1 1-1h6.3c.6 0 1 .4 1 1s-.4 1-1 1zM34.5 54h-4.3c-.6 0-1-.4-1-1s.4-1 1-1h4.3c.6 0 1 .4 1 1s-.4 1-1 1zM34.5 59.1h-4.3c-.6 0-1-.4-1-1s.4-1 1-1h4.3c.6 0 1 .4 1 1s-.4 1-1 1zM47.4 59.9c-.2 0-.4-.1-.6-.2l-3.5-2.5-3.5 2.5c-.3.2-.7.2-1 .1-.3-.2-.5-.5-.5-.9V50c0-.6.4-1 1-1s1 .4 1 1v7l2.5-1.8c.3-.2.8-.2 1.2 0l2.5 1.8v-6.6c0-.6.4-1 1-1s1 .4 1 1V59c0 .4-.2.7-.5.9h-.6z" fill="#000000" data-original="#000000"></path><path d="M43.3 52.3c-4.5 0-8.2-3.7-8.2-8.2s3.7-8.2 8.2-8.2 8.2 3.7 8.2 8.2-3.7 8.2-8.2 8.2zm0-14.5c-3.4 0-6.2 2.8-6.2 6.2s2.8 6.2 6.2 6.2 6.2-2.8 6.2-6.2-2.8-6.2-6.2-6.2z" fill="#000000" data-original="#000000"></path><path d="M43.3 48.4c-2.4 0-4.3-2-4.3-4.3 0-2.4 2-4.3 4.3-4.3s4.3 2 4.3 4.3-1.9 4.3-4.3 4.3zm0-6.7C42 41.7 41 42.8 41 44c0 1.3 1.1 2.3 2.3 2.3s2.3-1.1 2.3-2.3-1-2.3-2.3-2.3z" fill="#000000" data-original="#000000"></path></g></svg>