<svg xmlns="http://www.w3.org/2000/svg" version="1.1" xmlns:xlink="http://www.w3.org/1999/xlink" xmlns:svgjs="http://svgjs.com/svgjs" width="512" height="512" x="0" y="0" viewBox="0 0 512 512" style="enable-background:new 0 0 512 512" xml:space="preserve" class=""><defs><linearGradient id="a" x1="100.333" x2="411.667" y1="460.832" y2="149.498" gradientUnits="userSpaceOnUse"><stop offset="0" stop-color="#006ef1"></stop><stop offset="1" stop-color="#00e6f0"></stop></linearGradient></defs><g><linearGradient id="a" x1="100.333" x2="411.667" y1="460.832" y2="149.498" gradientUnits="userSpaceOnUse"><stop offset="0" stop-color="#006ef1"></stop><stop offset="1" stop-color="#00e6f0"></stop></linearGradient><path fill="url(&quot;#a&quot;)" d="M150.24 143.31c0-58.301 47.461-105.751 105.76-105.751s105.76 47.45 105.76 105.751c0 58.307-47.454 105.76-105.76 105.76s-105.76-47.453-105.76-105.76zm175.073 97.042-.583-.096-.482.34c-20.026 14.11-43.753 21.595-68.249 21.595-24.52 0-48.193-7.498-68.25-21.596l-.482-.339-.582.096c-76.722 12.702-134.018 80.115-134.018 157.919 0 13.584 6.906 25.075 18.9 31.452C128.063 459.757 192.15 474.441 256 474.441c63.871 0 127.918-14.673 184.431-44.718 11.995-6.377 18.9-17.868 18.9-31.452.001-77.804-57.295-145.217-134.018-157.919z" data-original="url(#a)" class=""></path></g></svg>